<?xml version="1.0" encoding="utf-8"?>
<!-- Generator: Adobe Illustrator 26.0.3, SVG Export Plug-In . SVG Version: 6.00 Build 0)  -->
<svg version="1.0" id="katman_1" xmlns="http://www.w3.org/2000/svg" xmlns:xlink="http://www.w3.org/1999/xlink" x="0px" y="0px"
	 viewBox="0 0 800 600" style="enable-background:new 0 0 800 600;" xml:space="preserve">
<style type="text/css">
	.st0{fill:#161616;}
	.st1{fill:#191312;}
	.st2{fill:#727272;}
</style>
<path class="st0" d="M322.9,256.1v25.3h-11.9v-37.8h35.6v12.6L322.9,256.1z M346.6,294.1v12.6h-35.5v-12.6H346.6z"/>
<path class="st0" d="M406,243.6h11.9v25.2h11.9v-25.2h11.8v37.8H406V243.6z M429.8,294.1v12.6h-11.8v-12.6H429.8z"/>
<path class="st0" d="M477.1,281.4v-25.3h-23.7v-12.5H489v37.8H477.1z M465.3,268.7v37.9h-11.9v-37.9H465.3z"/>
<path class="st0" d="M500.9,256.1v-12.5h35.5v12.6L500.9,256.1z M512.7,306.6v-37.8h11.9v37.9L512.7,306.6z"/>
<path class="st0" d="M583.9,306.6H572v-25.3h-11.9v25.3h-11.8v-37.9h35.5V306.6z"/>
<path class="st0" d="M572,243.5h-11.8v12.6H572V243.5z"/>
<path class="st0" d="M394.1,281.4h-11.8v25.3h11.8V281.4z"/>
<path class="st0" d="M619.5,281.4v-25.3h-23.7v-12.5h35.6v37.8H619.5z M607.6,268.7v37.9h-11.9v-37.9H607.6z"/>
<path class="st0" d="M382.2,268.7v-12.6h-23.7v-12.5h35.5v25.2H382.2z M370.4,268.7v37.9h-11.8v-37.9H370.4z"/>
<path class="st0" d="M643.3,256.1v-12.5h35.5v12.6L643.3,256.1z M643.3,281.3v-12.6h35.5v12.6H643.3z M643.3,306.6v-12.6h35.5v12.6
	L643.3,306.6z"/>
<path class="st1" d="M360.8,335.7h-3.2v33.9h3.2V335.7z"/>
<path class="st1" d="M311.2,339.2h7.7v4.8h-7.7v3.5h7.7v30.5h3.3v-30.5h7.7v-3.5h-7.7v-4.8h7.7v-3.5h-18.7V339.2z"/>
<path class="st1" d="M329.9,352.2h-3.2v25.7h3.2V352.2z"/>
<path class="st1" d="M314.5,352.2h-3.2v25.7h3.2V352.2z"/>
<path class="st1" d="M337.6,343.9h-3.2v33.9h3.2V343.9z"/>
<path class="st1" d="M345.4,343.9h-3.2v34h18.7v-3.5h-15.4V343.9z"/>
<path class="st1" d="M349.8,369.6h3.2v-33.9h-18.7v3.5h15.4V369.6z"/>
<path class="st1" d="M434.1,363.8h32.8v-11.6h-32.8V363.8z M437.3,355.5h26.3v4.8h-26.3V355.5z"/>
<path class="st1" d="M452.1,333.1h-3.3v2.6h-14.7v3.5h14.7v4.8h-14.7v3.5h32.8v-3.5h-14.7v-4.8h14.7v-3.5h-14.7V333.1z"/>
<path class="st1" d="M463.6,374.5h-11.5v-5.9h-18v9.2h3.2v-5.6l11.5,0v5.6h18v-9.2h-3.2V374.5z"/>
<path class="st1" d="M422.8,348.6h-5.5v3.5h5.5V348.6z"/>
<path class="st1" d="M417.3,339.2h9.1v35.1h-9.1v3.6h12.3v-42.2h-12.3V339.2z"/>
<path class="st1" d="M422.8,361.4h-5.5v3.5h5.5V361.4z"/>
<path class="st1" d="M523.3,339.2h7.7v4.8h-7.7v3.5h7.7v30.5h0h3.2v-30.5h7.7v-3.5h-7.7v-4.8h7.7v-3.5h-18.7V339.2z"/>
<path class="st1" d="M542,352.2h-3.2v25.7h3.2V352.2z"/>
<path class="st1" d="M526.6,352.2h-3.2v25.7h3.2V352.2z"/>
<path class="st1" d="M569,335.8h-3.2v29.6h-19.2v3.5h19.2v9h3.2v-9h3.9v-3.5H569V335.8z"/>
<path class="st1" d="M549.5,348.6l-2.3,2.4l8.5,9.1l2.3-2.4L549.5,348.6z"/>
<path class="st1" d="M549.5,337.4l-2.3,2.4l8.5,9.1l2.3-2.4L549.5,337.4z"/>
<path class="st1" d="M678.8,342.6v-3.5H664v-3.4h-3.2v3.4H646v3.5h14.7v9.1H646v3.5h29.5v6.1l-13.1,5.9l-15.1-6.9l-1.3,3.2l12.2,5.5
	l-12.2,5.6l1.3,3.2l15.1-6.9l15.1,6.9l1.3-3.2l-12.2-5.6l12.2-5.5l0-0.1h0v-8.3v-2.7v-0.7H664v-9.1H678.8z"/>
<path class="st1" d="M638.3,335.8h-3.2v8.1h-5.5v3.5h5.5V358h-5.5v3.5h5.5v12.9h-5.5v3.5h5.5h2.7h0.5v-16.4h3.3V358h-3.3v-10.6h3.3
	v-3.5h-3.3V335.8z"/>
<path class="st2" d="M322.9,281.4h-11.8V294h11.8V281.4z"/>
<path class="st2" d="M370.4,256.1h-11.8v12.6h11.8V256.1z"/>
<path class="st2" d="M382.2,268.7h-11.8v12.6h11.8V268.7z"/>
<path class="st2" d="M429.7,281.4h-11.8V294h11.8V281.4z"/>
<path class="st2" d="M465.3,256.1h-11.8v12.6h11.8V256.1z"/>
<path class="st2" d="M524.6,256.1h-11.8v12.6h11.8V256.1z"/>
<path class="st2" d="M560.2,256.1h-11.8v12.6h11.8V256.1z"/>
<path class="st2" d="M583.9,256.1h-11.8v12.6h11.8V256.1z"/>
<path class="st2" d="M607.6,256.1h-11.8v12.6h11.8V256.1z"/>
<path class="st2" d="M477.1,268.7h-11.8v12.6h11.8V268.7z"/>
<path class="st2" d="M619.5,268.7h-11.8v12.6h11.8V268.7z"/>
<path class="st2" d="M655.1,256.1h-11.8v12.6h11.8V256.1z"/>
<path class="st2" d="M655.1,281.4h-11.8V294h11.8V281.4z"/>
<path class="st0" d="M246.8,379.7c-0.6,0-1.2-0.2-1.7-0.6c-0.5-0.4-0.9-0.9-1.1-1.5c-1.8-4.1-4.1-8-6.8-11.5
	c-6.4-9.4-14.3-21.2-14.4-35.8c0-3.1,0.5-6.2,1.7-9.1c1.1-2.9,2.7-5.5,4.8-7.7c2.1-2.2,4.5-4,7.2-5.2c2.7-1.2,5.6-1.8,8.5-1.8
	c2.9,0,5.9,0.6,8.6,1.8c2.7,1.2,5.2,2.9,7.3,5.2c2.1,2.2,3.7,4.8,4.9,7.7c1.1,2.9,1.7,6,1.7,9.1v46.2c0,0.4-0.1,0.8-0.2,1.2
	c-0.2,0.4-0.4,0.7-0.7,1c-0.3,0.3-0.6,0.5-1,0.7c-0.4,0.2-0.8,0.2-1.2,0.2H246.8z"/>
<path class="st0" d="M140.9,379.4c-0.8,0-1.6-0.3-2.1-0.9c-0.6-0.6-0.9-1.4-0.9-2.3v-73.5c0-9,3.4-17.7,9.4-24.1
	c6-6.4,14.1-10,22.6-10h0.3c4.2,0,8.4,1,12.3,2.8c3.9,1.8,7.4,4.3,10.3,7.6c2.9,3.2,5.2,7,6.8,11.2c1.5,4.2,2.3,8.6,2.2,13.1
	c0,18.4,0,27.6-7.9,37.5c-2,2.4-4.5,5-7.1,7.6c-7.5,7.6-15.8,16.2-17.5,28.1c-0.1,0.8-0.5,1.5-1,2c-0.5,0.5-1.2,0.8-2,0.8
	L140.9,379.4z"/>
<path class="st0" d="M227.4,311.4c2.4-2.6,5.2-4.6,8.4-5.9c3.1-1.3,6.5-2,9.9-1.9c3.4,0.1,6.7,0.9,9.8,2.4s5.8,3.6,8.1,6.3
	c-2.5-5.5-6.2-10.2-10.7-13.9c-4.6-3.6-9.9-6.1-15.5-7.1c-3-0.3-5.9-1.4-8.3-3.3c-2.2-2.2-3.8-5-4.7-8
	c-5.5-14.9-16.1-26.9-29.7-33.7c-0.9-0.5-1.7-1.2-2.2-2.1c-0.6-0.9-0.9-1.9-1-3c-0.3-4.8-2-9.5-4.9-13.2c-2.9-3.7-6.8-6.4-11.2-7.6
	c-4.4-1.2-9.1-0.9-13.3,0.8s-7.9,4.9-10.3,9c-0.5,0.9-1.2,1.6-2.1,2.1c-0.8,0.5-1.8,0.8-2.8,0.8h-5.7c-0.7,0-1.4,0.3-1.9,0.8
	c-0.5,0.5-0.8,1.2-0.9,1.9c-0.2,3-0.9,6-2.1,8.8c-1.2,2.7-3.1,4.9-5.5,6.3l-0.5,0.3c-2.5,1.8-4.5,4.1-6.1,6.8
	c-1.6,2.7-2.6,5.7-3.1,8.8c0.6,0.3,1.1,0.8,1.4,1.4c0.3,0.6,0.5,1.3,0.5,2c0,0.7-0.2,1.4-0.5,2c-0.3,0.6-0.8,1.1-1.4,1.4
	c0.6,4,2.1,7.8,4.5,11c2.4,3.2,5.5,5.6,9.1,7.1c0.7,0.3,1.4,0.7,1.9,1.3c1.6-6.3,4.7-12,9.1-16.6c4.4-4.6,9.8-7.9,15.7-9.5
	c5.9-1.6,12.2-1.6,18,0.2c5.9,1.8,11.2,5.2,15.5,9.8c3.2,3.5,5.7,7.6,7.4,12.2c1.7,4.5,2.5,9.4,2.4,14.3c0,18.5,0,28.7-8.5,39.3
	c-2.1,2.6-4.5,5.1-7.3,7.9c-5.3,4.9-9.8,10.5-13.5,16.8c1.3,0,2.5,0.2,3.8,0.2h52.1c1.3,0,2.5-0.1,3.7-0.2
	c-6.2-9.2-14.6-21.8-14.7-37.2c0-3.5,0.6-6.9,1.8-10.2C223.2,316.8,225,313.9,227.4,311.4z"/>
</svg>
